<svg width="15" height="15" viewBox="0 0 15 15" fill="none" xmlns="http://www.w3.org/2000/svg">
<path d="M7.73529 0.46875C11.454 0.46875 14.5165 3.53125 14.5165 7.25C14.5165 10.9961 11.454 14.0312 7.73529 14.0312C3.9892 14.0312 0.954044 10.9961 0.954044 7.25C0.954044 3.53125 3.9892 0.46875 7.73529 0.46875ZM11.5908 3.39453C9.59467 1.39844 6.47748 1.28906 4.34467 2.95703L12.0283 10.6406C13.6962 8.50781 13.5869 5.39062 11.5908 3.39453ZM3.85248 11.1328C5.84858 13.1289 8.96576 13.2383 11.0986 11.5703L3.41498 3.88672C1.74701 6.01953 1.85639 9.13672 3.85248 11.1328Z" fill="#B00000"/>
</svg>
