<svg width="20" height="20" viewBox="0 0 20 20" fill="none" xmlns="http://www.w3.org/2000/svg">
<path d="M10 20C4.45313 20 0 15.5469 0 10C0 4.49219 4.45312 0 10 0C15.5078 0 20 4.49219 20 10C20 15.5469 15.5078 20 10 20ZM10 5C9.45312 5 9.0625 5.42969 9.0625 5.9375L9.0625 10.3125C9.0625 10.8594 9.45313 11.25 10 11.25C10.5078 11.25 10.9375 10.8594 10.9375 10.3125L10.9375 5.9375C10.9375 5.42969 10.5078 5 10 5ZM11.25 13.75C11.25 13.0859 10.6641 12.5 10 12.5C9.29688 12.5 8.75 13.0859 8.75 13.75C8.75 14.4531 9.29688 15 10 15C10.6641 15 11.25 14.4531 11.25 13.75Z" fill="#4F8172"/>
</svg>
