<svg width="15" height="15" viewBox="0 0 15 15" fill="none" xmlns="http://www.w3.org/2000/svg">
<path d="M13.4228 0.25C14.1337 0.25 14.7353 0.851562 14.7353 1.5625L14.7353 10.3125C14.7353 11.0508 14.1337 11.625 13.4228 11.625H12.1103V12.9375C12.1103 13.6758 11.5087 14.25 10.7978 14.25L2.04779 14.25C1.30951 14.25 0.735294 13.6758 0.735294 12.9375L0.735294 4.1875C0.735294 3.47656 1.30951 2.875 2.04779 2.875L3.36029 2.875V1.5625C3.36029 0.851562 3.93451 0.25 4.67279 0.25L13.4228 0.25ZM10.6337 12.9375C10.7158 12.9375 10.7978 12.8828 10.7978 12.7734V11.625H4.67279C3.93451 11.625 3.36029 11.0508 3.36029 10.3125L3.36029 4.1875L2.21186 4.1875C2.10248 4.1875 2.04779 4.26953 2.04779 4.35156L2.04779 12.7734C2.04779 12.8828 2.10248 12.9375 2.21186 12.9375L10.6337 12.9375ZM13.2587 10.3125C13.3408 10.3125 13.4228 10.2578 13.4228 10.1484L13.4228 1.72656C13.4228 1.64453 13.3408 1.5625 13.2587 1.5625L4.83686 1.5625C4.72748 1.5625 4.67279 1.64453 4.67279 1.72656L4.67279 10.1484C4.67279 10.2578 4.72748 10.3125 4.83686 10.3125H13.2587Z" fill="#3D3D3D"/>
</svg>
