<svg width="14" height="12" viewBox="0 0 14 12" fill="none" xmlns="http://www.w3.org/2000/svg">
<path d="M12.5027 6.75C13.1121 6.75 13.6277 7.26562 13.6277 7.875V10.875C13.6277 11.5078 13.1121 12 12.5027 12L1.2527 12C0.619889 12 0.127701 11.5078 0.127701 10.875L0.127701 7.875C0.127701 7.26562 0.619889 6.75 1.2527 6.75L3.40895 6.75L2.33083 5.67187C1.60426 4.96875 2.11989 3.75 3.1277 3.75H4.6277L4.6277 1.125C4.6277 0.515625 5.11989 0 5.7527 0L8.0027 0C8.61208 0 9.1277 0.515625 9.1277 1.125V3.75H10.6277C11.6121 3.75 12.1277 4.96875 11.4246 5.67187L10.323 6.75L12.5027 6.75ZM3.1277 4.875L6.8777 8.625L10.6277 4.875H8.0027V1.125L5.7527 1.125L5.7527 4.875H3.1277ZM12.5027 10.875V7.875H9.19801L7.65114 9.42187C7.22926 9.86719 6.5027 9.86719 6.08083 9.42187L4.53395 7.875L1.2527 7.875L1.2527 10.875L12.5027 10.875ZM10.4402 9.375C10.4402 9.07031 10.6746 8.8125 11.0027 8.8125C11.3074 8.8125 11.5652 9.07031 11.5652 9.375C11.5652 9.70312 11.3074 9.9375 11.0027 9.9375C10.6746 9.9375 10.4402 9.70312 10.4402 9.375Z" fill="#295AAA"/>
</svg>
