<svg width="10" height="10" viewBox="0 0 10 10" fill="none" xmlns="http://www.w3.org/2000/svg">
<path d="M8.86029 4.25C9.04779 4.25 9.23529 4.4375 9.23529 4.625V5.375C9.23529 5.58594 9.04779 5.75 8.86029 5.75H5.48529V9.125C5.48529 9.33594 5.29779 9.5 5.11029 9.5H4.36029C4.14936 9.5 3.98529 9.33594 3.98529 9.125L3.98529 5.75H0.610294C0.399357 5.75 0.235294 5.58594 0.235294 5.375V4.625C0.235294 4.4375 0.399357 4.25 0.610294 4.25H3.98529L3.98529 0.875C3.98529 0.6875 4.14936 0.5 4.36029 0.5L5.11029 0.5C5.29779 0.5 5.48529 0.6875 5.48529 0.875L5.48529 4.25H8.86029Z" fill="#3D3D3D"/>
</svg>
