<svg width="4" height="14" viewBox="0 0 4 14" fill="none" xmlns="http://www.w3.org/2000/svg">
<path d="M2 10.25C2.9375 10.25 3.75 11.0625 3.75 12C3.75 12.9688 2.9375 13.75 2 13.75C1.03125 13.75 0.25 12.9688 0.25 12C0.25 11.0625 1.03125 10.25 2 10.25ZM2 5.25C2.9375 5.25 3.75 6.0625 3.75 7C3.75 7.96875 2.9375 8.75 2 8.75C1.03125 8.75 0.25 7.96875 0.25 7C0.25 6.0625 1.03125 5.25 2 5.25ZM3.75 2C3.75 2.96875 2.9375 3.75 2 3.75C1.03125 3.75 0.25 2.96875 0.25 2C0.25 1.0625 1.03125 0.25 2 0.25C2.9375 0.25 3.75 1.0625 3.75 2Z" fill="#295AAA"/>
</svg>
