<svg width="21" height="14" viewBox="0 0 21 14" fill="none" xmlns="http://www.w3.org/2000/svg">
<path d="M10.5 3.3125V3.34766C12.6797 3.34766 14.4375 5.10547 14.4375 7.25C14.4375 9.42969 12.6797 11.1875 10.5 11.1875C8.32031 11.1875 6.5625 9.42969 6.5625 7.25C6.5625 6.86328 6.63281 6.51172 6.73828 6.16016C6.98438 6.33594 7.33594 6.40625 7.6875 6.40625C8.74219 6.40625 9.65625 5.52734 9.65625 4.4375C9.62109 4.12109 9.55078 3.76953 9.375 3.48828C9.72656 3.38281 10.1133 3.34766 10.5 3.3125ZM20.4844 6.75781C20.5547 6.89844 20.5898 7.07422 20.5898 7.28516C20.5898 7.46094 20.5547 7.63672 20.4844 7.77734C18.5859 11.5039 14.7891 14 10.5 14C6.17578 14 2.37891 11.5039 0.480469 7.77734C0.410156 7.63672 0.375 7.46094 0.375 7.25C0.375 7.07422 0.410156 6.89844 0.480469 6.75781C2.37891 3.03125 6.17578 0.5 10.5 0.5C14.7891 0.5 18.5859 3.03125 20.4844 6.75781ZM10.5 12.3125C13.9453 12.3125 17.1445 10.3789 18.832 7.25C17.1445 4.12109 13.9453 2.1875 10.5 2.1875C7.01953 2.1875 3.82031 4.12109 2.13281 7.25C3.82031 10.3789 7.01953 12.3125 10.5 12.3125Z" fill="#3D3D3D"/>
</svg>
