<svg width="23" height="19" viewBox="0 0 23 19" fill="none" xmlns="http://www.w3.org/2000/svg">
<path d="M22.5391 16.8086C22.6445 16.9141 22.75 17.0898 22.75 17.2656C22.75 17.4062 22.6797 17.5117 22.6094 17.6172L22.2578 18.0391C22.1523 18.1797 22.0117 18.25 21.8008 18.25C21.6953 18.25 21.5547 18.2148 21.4844 18.1445L0.460938 1.69141C0.320313 1.62109 0.214844 1.44531 0.214844 1.26953C0.214844 1.12891 0.285156 1.02344 0.355469 0.917969L0.707031 0.460937C0.8125 0.355469 0.953125 0.285156 1.16406 0.285156C1.26953 0.285156 1.41016 0.320312 1.51562 0.390625L22.5391 16.8086ZM10.6562 5.41797C10.9375 5.34766 11.2188 5.34766 11.5 5.3125C13.6094 5.3125 15.332 7 15.4023 9.10937L10.6562 5.41797ZM12.3086 13.1172C12.0273 13.1875 11.7461 13.1875 11.5 13.1875C9.35547 13.1875 7.63281 11.5352 7.5625 9.42578L12.3086 13.1172ZM11.5 4.1875C10.7969 4.1875 10.0938 4.29297 9.42578 4.46875L7.80859 3.16797C8.96875 2.74609 10.1992 2.5 11.5 2.5C15.7891 2.5 19.5859 5.03125 21.4844 8.75781C21.5547 8.89844 21.625 9.07422 21.625 9.28516C21.625 9.46094 21.5547 9.63672 21.4844 9.77734C20.9922 10.7617 20.3594 11.6406 19.6211 12.4141L18.2852 11.3945C18.918 10.7617 19.4102 10.0586 19.832 9.25C18.1445 6.12109 14.9453 4.1875 11.5 4.1875ZM11.5 14.3125C12.168 14.3125 12.8711 14.2422 13.5391 14.0664L15.1563 15.3672C13.9961 15.7539 12.7656 16 11.5 16C7.17578 16 3.37891 13.5039 1.48047 9.77734C1.41016 9.63672 1.375 9.46094 1.375 9.25C1.375 9.07422 1.41016 8.89844 1.48047 8.75781C1.97266 7.77344 2.60547 6.89453 3.34375 6.12109L4.67969 7.14062C4.04688 7.77344 3.55469 8.47656 3.13281 9.25C4.82031 12.3789 8.01953 14.3125 11.5 14.3125Z" fill="#295AAA"/>
</svg>
