<svg width="17" height="11" viewBox="0 0 17 11" fill="none" xmlns="http://www.w3.org/2000/svg">
<path d="M8.73529 2.1875V2.21484C10.4306 2.21484 11.7978 3.58203 11.7978 5.25C11.7978 6.94531 10.4306 8.3125 8.73529 8.3125C7.03998 8.3125 5.67279 6.94531 5.67279 5.25C5.67279 4.94922 5.72748 4.67578 5.80951 4.40234C6.00092 4.53906 6.27436 4.59375 6.54779 4.59375C7.36811 4.59375 8.07904 3.91016 8.07904 3.0625C8.0517 2.81641 7.99701 2.54297 7.86029 2.32422C8.13373 2.24219 8.43451 2.21484 8.73529 2.1875ZM16.5009 4.86719C16.5556 4.97656 16.583 5.11328 16.583 5.27734C16.583 5.41406 16.5556 5.55078 16.5009 5.66016C15.0244 8.55859 12.0712 10.5 8.73529 10.5C5.37201 10.5 2.41889 8.55859 0.942326 5.66016C0.887638 5.55078 0.860294 5.41406 0.860294 5.25C0.860294 5.11328 0.887638 4.97656 0.942326 4.86719C2.41889 1.96875 5.37201 0 8.73529 0C12.0712 0 15.0244 1.96875 16.5009 4.86719ZM8.73529 9.1875C11.415 9.1875 13.9033 7.68359 15.2158 5.25C13.9033 2.81641 11.415 1.3125 8.73529 1.3125C6.02826 1.3125 3.53998 2.81641 2.22748 5.25C3.53998 7.68359 6.02826 9.1875 8.73529 9.1875Z" fill="#3D3D3D"/>
</svg>
