<svg width="11" height="15" viewBox="0 0 11 15" fill="none" xmlns="http://www.w3.org/2000/svg">
<path d="M6.39154 9.62891L7.45795 8.53516C7.70404 8.28906 8.1142 8.28906 8.36029 8.53516C8.63373 8.80859 8.63373 9.21875 8.36029 9.46484L6.17279 11.6523C5.9267 11.9258 5.51654 11.9258 5.27045 11.6523L3.08295 9.46484C2.80951 9.21875 2.80951 8.80859 3.08295 8.53516C3.19233 8.42578 3.35639 8.34375 3.54779 8.34375C3.71186 8.34375 3.87592 8.42578 3.98529 8.53516L5.07904 9.62891V6.8125C5.07904 6.45703 5.35248 6.15625 5.73529 6.15625C6.09076 6.15625 6.39154 6.45703 6.39154 6.8125V9.62891ZM10.4658 2.82031C10.7939 3.14844 10.9853 3.58594 10.9853 4.05078L10.9853 12.5C10.9853 13.4844 10.1923 14.25 9.23529 14.25L2.23529 14.25C1.25092 14.25 0.485294 13.4844 0.485294 12.5L0.485294 2C0.485294 1.04297 1.25092 0.25 2.23529 0.25L7.18451 0.25C7.64936 0.25 8.08686 0.441406 8.41498 0.769531L10.4658 2.82031ZM9.67279 12.5H9.64545L9.64545 4.625H7.48529C6.99311 4.625 6.61029 4.24219 6.61029 3.75V1.58984L2.23529 1.58984C1.9892 1.58984 1.79779 1.78125 1.79779 2.02734L1.79779 12.5C1.79779 12.7461 1.9892 12.9375 2.23529 12.9375L9.23529 12.9375C9.45404 12.9375 9.67279 12.7461 9.67279 12.5Z" fill="#295AAA"/>
</svg>
