<svg width="11" height="15" viewBox="0 0 11 15" fill="none" xmlns="http://www.w3.org/2000/svg">
<path d="M9.23529 12.9375C9.45404 12.9375 9.67279 12.7461 9.67279 12.5V11.625H10.9853V12.5C10.9853 13.4844 10.1923 14.25 9.23529 14.25L2.23529 14.25C1.25092 14.25 0.485294 13.4844 0.485294 12.5V11.625H1.79779V12.5C1.79779 12.7461 1.9892 12.9375 2.23529 12.9375L9.23529 12.9375ZM7.48529 4.625C6.99311 4.625 6.61029 4.24219 6.61029 3.75V1.5625L2.23529 1.5625C1.9892 1.5625 1.79779 1.78125 1.79779 2L1.79779 5.5H0.485294L0.485294 2C0.485294 1.04297 1.25092 0.25 2.23529 0.25L6.74701 0.25C7.21186 0.25 7.64936 0.441406 7.97748 0.769531L10.4658 3.25781C10.7939 3.58594 10.9853 4.02344 10.9853 4.48828V5.5L9.67279 5.5V4.625H7.48529ZM2.89154 6.375C3.71186 6.375 4.42279 7.08594 4.42279 7.90625C4.42279 8.75391 3.71186 9.4375 2.89154 9.4375H2.67279V10.3125C2.67279 10.5586 2.45404 10.75 2.23529 10.75C1.9892 10.75 1.79779 10.5586 1.79779 10.3125L1.79779 6.8125C1.79779 6.59375 1.9892 6.375 2.23529 6.375H2.89154ZM3.54779 7.90625C3.54779 7.55078 3.24701 7.25 2.89154 7.25H2.67279V8.5625H2.89154C3.24701 8.5625 3.54779 8.28906 3.54779 7.90625ZM4.86029 6.8125C4.86029 6.59375 5.0517 6.375 5.29779 6.375H5.95404C6.66498 6.375 7.26654 6.97656 7.26654 7.6875V9.4375C7.26654 10.1758 6.66498 10.75 5.95404 10.75H5.29779C5.0517 10.75 4.86029 10.5586 4.86029 10.3125L4.86029 6.8125ZM5.73529 9.875H5.95404C6.17279 9.875 6.39154 9.68359 6.39154 9.4375V7.6875C6.39154 7.46875 6.17279 7.25 5.95404 7.25H5.73529V9.875ZM9.67279 6.375C9.89154 6.375 10.1103 6.59375 10.1103 6.8125C10.1103 7.05859 9.89154 7.25 9.67279 7.25H8.79779V8.125H9.67279C9.89154 8.125 10.1103 8.34375 10.1103 8.5625C10.1103 8.80859 9.89154 9 9.67279 9H8.79779V10.3125C8.79779 10.5586 8.57904 10.75 8.36029 10.75C8.1142 10.75 7.92279 10.5586 7.92279 10.3125V6.8125C7.92279 6.59375 8.1142 6.375 8.36029 6.375H9.67279Z" fill="#3D3D3D"/>
</svg>
