<svg width="12" height="15" viewBox="0 0 12 15" fill="none" xmlns="http://www.w3.org/2000/svg">
<path d="M11.1687 3.12109C11.2781 3.25781 11.3328 3.42187 11.3601 3.58594V3.75L7.86012 3.75V0.25H8.02419C8.18825 0.25 8.35231 0.332031 8.48903 0.441406L11.1687 3.12109ZM6.98512 3.96875C6.98512 4.35156 7.25856 4.625 7.64137 4.625L11.3601 4.625L11.3601 13.5937C11.3601 13.6211 11.3601 13.6211 11.3601 13.6211C11.3601 13.9766 11.0593 14.25 10.7039 14.25L1.51637 14.25C1.48903 14.25 1.48903 14.2773 1.48903 14.2773C1.13356 14.2773 0.860123 13.9766 0.860123 13.6211V13.5938L0.860123 0.90625H0.832779C0.832779 0.550781 1.13356 0.25 1.48903 0.25H1.51637L6.98512 0.25L6.98512 3.96875ZM8.95387 8.78125C8.95387 8.5625 8.73512 8.34375 8.51637 8.34375H6.76637V6.59375C6.76637 6.375 6.54762 6.15625 6.32887 6.15625H5.89137C5.64528 6.15625 5.45387 6.375 5.45387 6.59375V8.34375H3.70387C3.45778 8.34375 3.26637 8.5625 3.26637 8.78125V9.21875C3.26637 9.46484 3.45778 9.65625 3.70387 9.65625H5.45387L5.45387 11.4062C5.45387 11.6523 5.64528 11.8437 5.89137 11.8437H6.32887C6.54762 11.8437 6.76637 11.6523 6.76637 11.4062L6.76637 9.65625H8.51637C8.73512 9.65625 8.95387 9.46484 8.95387 9.21875V8.78125Z" fill="#4380E5"/>
</svg>
