<svg width="15" height="21" viewBox="0 0 15 21" fill="none" xmlns="http://www.w3.org/2000/svg">
<path d="M14.4141 4.32812C14.7656 4.67969 15 5.1875 15 5.65625L15 18.625C15 19.6797 14.1406 20.5 13.125 20.5L1.875 20.5C0.820313 20.5 0 19.6797 0 18.625L0 2.375C0 1.35938 0.820313 0.5 1.875 0.5L9.84375 0.5C10.3125 0.5 10.8203 0.695312 11.1719 1.04687L14.4141 4.32812ZM12.9688 5.5L10 2.53125V5.5L12.9688 5.5ZM1.875 18.625L13.125 18.625V7.375L9.0625 7.375C8.51563 7.375 8.125 6.98437 8.125 6.4375V2.375L1.875 2.375L1.875 18.625ZM6.09375 8.82031C6.09375 8.54687 6.28906 8.3125 6.5625 8.3125H8.39844C8.67188 8.3125 8.86719 8.54687 8.86719 8.82031L8.59375 12.8828C8.59375 13.1562 8.39844 13.3125 8.125 13.3125H6.83594C6.5625 13.3125 6.36719 13.1172 6.36719 12.8828L6.09375 8.82031ZM9.0625 15.5C9.0625 16.3984 8.35938 17.0625 7.5 17.0625C6.60156 17.0625 5.9375 16.3984 5.9375 15.5C5.9375 14.6406 6.60156 13.9375 7.5 13.9375C8.35938 13.9375 9.0625 14.6406 9.0625 15.5Z" fill="white"/>
</svg>
