<svg width="28" height="24" viewBox="0 0 28 24" fill="none" xmlns="http://www.w3.org/2000/svg">
<path d="M27.7188 11.1094C27.8594 11.25 27.9531 11.4375 28 11.6719C27.9531 11.8594 27.9063 12 27.7656 12.1406L26.7813 13.2656C26.6406 13.4062 26.4531 13.5 26.2188 13.5C26.0313 13.5 25.8438 13.4531 25.7031 13.3125L25 12.6562V22.5C25 23.3437 24.2969 24 23.5 24L5.5 24C4.65625 24 4 23.3438 4 22.5L4 12.6562L3.25 13.3125C3.10938 13.4531 2.92188 13.5 2.73438 13.5C2.5 13.5 2.3125 13.4062 2.17188 13.2656L1.1875 12.1406C1.04688 12.0469 0.953125 11.8594 0.953125 11.6719C0.953125 11.4375 1.09375 11.25 1.23438 11.1094L13.2344 0.515625C13.5156 0.234375 14.0781 0 14.5 0C14.875 0 15.4375 0.234375 15.7188 0.515625L20.5 4.6875V2.25C20.5 1.875 20.8281 1.5 21.25 1.5L24.25 1.5C24.625 1.5 25 1.875 25 2.25V8.67187L27.7188 11.1094ZM17.5 14.0156L17.5 10.0312C17.4531 9.46875 17.0312 9.04687 16.4688 9H12.4844C11.9219 9.04687 11.5 9.46875 11.5 10.0312V14.0156C11.5 14.5781 11.9219 15 12.4844 15H16.4688C17.0313 15 17.4531 14.5781 17.5 14.0156Z" fill="#4380E5"/>
</svg>
