<svg width="28" height="24" viewBox="0 0 28 24" fill="none" xmlns="http://www.w3.org/2000/svg">
<path d="M27.7188 11.25C27.8594 11.3906 28 11.625 28 11.8125C28 12.0469 27.9063 12.1875 27.8125 12.3281L27.2969 12.8906C27.1563 13.0312 26.9688 13.125 26.7344 13.125C26.5469 13.125 26.3594 13.0781 26.2188 12.9375L25 11.8125V22.125C25 23.2031 24.1563 24 23.125 24L5.82813 24C4.79688 24 3.95313 23.2031 3.95313 22.125L3.95313 11.8125L2.73438 12.9375C2.59375 13.0781 2.40625 13.125 2.21875 13.125C1.98438 13.125 1.79688 13.0312 1.65625 12.8906L1.1875 12.3281C1.04688 12.1875 0.953125 12.0469 0.953125 11.8125C0.953125 11.625 1.09375 11.3906 1.23438 11.25L13.2344 0.515625C13.5625 0.1875 13.9844 0 14.5 0C14.9688 0 15.3906 0.1875 15.7188 0.515625L18.25 2.76562V2.625C18.25 2.01562 18.7188 1.5 19.375 1.5L23.875 1.5C24.4844 1.5 25 2.01562 25 2.625V8.8125L27.7188 11.25ZM22.75 21.75L22.75 9.79687L14.5 2.39062L6.25 9.79688L6.25 21.75L22.75 21.75ZM22.75 6.79687V3.75L20.5 3.75V4.78125L22.75 6.79687ZM11.5 9.75C11.5 9.375 11.8281 9 12.25 9H16.75C17.125 9 17.5 9.375 17.5 9.75L17.5 14.25C17.5 14.6719 17.125 15 16.75 15H12.25C11.8281 15 11.5 14.6719 11.5 14.25V9.75Z" fill="#BCCEEC"/>
</svg>
