<svg width="16" height="14" viewBox="0 0 16 14" fill="none" xmlns="http://www.w3.org/2000/svg">
<path d="M2.5 10.5C2.75 10.5 3 10.75 3 11L3 13C3 13.2812 2.75 13.5 2.5 13.5H0.5C0.21875 13.5 0 13.2812 0 13L0 11C0 10.75 0.21875 10.5 0.5 10.5H2.5ZM2.5 0.5C2.75 0.5 3 0.75 3 1V3C3 3.28125 2.75 3.5 2.5 3.5H0.5C0.21875 3.5 0 3.28125 0 3L0 1C0 0.75 0.21875 0.5 0.5 0.5L2.5 0.5ZM2.5 5.5C2.75 5.5 3 5.75 3 6V8C3 8.28125 2.75 8.5 2.5 8.5H0.5C0.21875 8.5 0 8.28125 0 8L0 6C0 5.75 0.21875 5.5 0.5 5.5H2.5ZM15.5 11C15.75 11 16 11.25 16 11.5V12.5C16 12.7812 15.75 13 15.5 13L5.5 13C5.21875 13 5 12.7812 5 12.5V11.5C5 11.25 5.21875 11 5.5 11L15.5 11ZM15.5 1C15.75 1 16 1.25 16 1.5V2.5C16 2.78125 15.75 3 15.5 3L5.5 3C5.21875 3 5 2.78125 5 2.5L5 1.5C5 1.25 5.21875 1 5.5 1L15.5 1ZM15.5 6C15.75 6 16 6.25 16 6.5V7.5C16 7.78125 15.75 8 15.5 8L5.5 8C5.21875 8 5 7.78125 5 7.5L5 6.5C5 6.25 5.21875 6 5.5 6L15.5 6Z" fill="#4380E5"/>
</svg>
