<svg width="10" height="10" viewBox="0 0 10 10" fill="none" xmlns="http://www.w3.org/2000/svg">
<path d="M9.23512 4.25C9.42262 4.25 9.61012 4.4375 9.61012 4.625L9.61012 5.375C9.61012 5.58594 9.42262 5.75 9.23512 5.75H5.86012L5.86012 9.125C5.86012 9.33594 5.67262 9.5 5.48512 9.5H4.73512C4.52419 9.5 4.36012 9.33594 4.36012 9.125L4.36012 5.75H0.985123C0.774186 5.75 0.610123 5.58594 0.610123 5.375V4.625C0.610123 4.4375 0.774186 4.25 0.985123 4.25H4.36012L4.36012 0.875C4.36012 0.6875 4.52419 0.5 4.73512 0.5L5.48512 0.5C5.67262 0.5 5.86012 0.6875 5.86012 0.875L5.86012 4.25H9.23512Z" fill="#4380E5"/>
</svg>
