<svg width="18" height="17" viewBox="0 0 18 17" fill="none" xmlns="http://www.w3.org/2000/svg">
<path d="M13.8125 7.71875L13.0938 8.4375L6.875 14.6562C6.5625 15 6.15625 15.2188 5.71875 15.375L1.9375 16.4688C1.6875 16.5312 1.40625 16.4688 1.21875 16.2812C1 16.0938 0.9375 15.8125 1.03125 15.5312L2.125 11.7812C2.25 11.3438 2.5 10.9375 2.8125 10.5938L9.03125 4.375L9.75 3.6875L10.0938 3.3125L11.1562 4.375L13.0938 6.3125L14.1563 7.375L13.8125 7.71875ZM6 13H5C4.71875 13 4.5 12.7812 4.5 12.5V11.5L3.78125 11.7812C3.6875 11.9062 3.59375 12.0312 3.5625 12.1875L2.84375 14.625L5.28125 13.9062C5.4375 13.875 5.5625 13.8125 5.6875 13.7188L6 13ZM12.3125 1.09375C13.0938 0.3125 14.375 0.3125 15.1562 1.09375L16.375 2.34375C17.1562 3.125 17.1562 4.375 16.375 5.15625L15.9375 5.625L15.2188 6.3125L14.875 6.65625L13.8125 5.625L11.875 3.65625L10.8125 2.625L11.1562 2.25L11.875 1.5625L12.3125 1.09375ZM10.8438 6.34375C11.0313 6.15625 11.0313 5.84375 10.8438 5.65625C10.6562 5.4375 10.3125 5.4375 10.125 5.65625L5.625 10.1562C5.4375 10.3438 5.4375 10.6562 5.625 10.8438C5.8125 11.0312 6.15625 11.0312 6.34375 10.8438L10.8438 6.34375Z" fill="#295AAA"/>
</svg>
