<svg width="15" height="15" viewBox="0 0 15 15" fill="none" xmlns="http://www.w3.org/2000/svg">
<path d="M1.71967 10.1211C1.8017 9.84766 1.93842 9.57422 2.10248 9.35547V9.32812H2.12983C2.18451 9.24609 2.26654 9.16406 2.32123 9.10938L10.6337 0.796875C11.3173 0.113281 12.4384 0.113281 13.122 0.796875L14.1884 1.86328C14.2705 1.94531 14.3525 2.05469 14.4072 2.13672C14.872 2.82031 14.79 3.75 14.1884 4.35156L5.87592 12.6641C5.84858 12.6914 5.79389 12.7187 5.76654 12.7734C5.7392 12.8008 5.68451 12.8281 5.65717 12.8555V12.8828H5.62983C5.41108 13.0469 5.13764 13.1836 4.8642 13.2656L2.73139 13.8945L1.55561 14.25C1.33686 14.3047 1.09076 14.25 0.926701 14.0586C0.735294 13.8945 0.680607 13.6484 0.762638 13.4297L1.09076 12.2539L1.71967 10.1211ZM11.208 5.47266L9.51264 3.77734L4.4267 8.86328L4.75483 10.2305L6.12201 10.5586L11.208 5.47266ZM3.38764 10.0664L3.05951 10.2852C3.03217 10.3398 3.00483 10.4219 2.97748 10.5039L2.78608 11.1328L2.34858 12.6367L3.85248 12.1992L4.48139 12.0078C4.56342 11.9805 4.64545 11.9531 4.70014 11.9258L4.91889 11.625L4.07123 11.4062C3.82514 11.3516 3.63373 11.1602 3.57904 10.9141L3.38764 10.0664ZM9.34858 6.23828L6.72358 8.86328C6.55951 9.02734 6.25873 9.02734 6.09467 8.86328C5.93061 8.69922 5.93061 8.42578 6.09467 8.26172L8.71967 5.63672C8.88373 5.44531 9.18451 5.44531 9.34858 5.63672C9.51264 5.80078 9.51264 6.07422 9.34858 6.23828Z" fill="#3D3D3D"/>
</svg>
