<svg width="12" height="12" viewBox="0 0 12 12" fill="none" xmlns="http://www.w3.org/2000/svg">
<path d="M10.9766 2.50391L2.22656 11.2539C1.89844 11.6094 1.32422 11.6094 0.996094 11.2539C0.640625 10.9258 0.640625 10.3516 0.996094 10.0234L9.74609 1.27344C10.0742 0.917969 10.6484 0.917969 10.9766 1.27344C11.332 1.60156 11.332 2.17578 10.9766 2.50391ZM4.25 2.75C4.25 3.73437 3.45703 4.5 2.5 4.5C1.51563 4.5 0.75 3.73438 0.75 2.75C0.75 1.79297 1.51562 1 2.5 1C3.45703 1 4.25 1.79297 4.25 2.75ZM11.25 9.75C11.25 10.7344 10.457 11.5 9.5 11.5C8.51562 11.5 7.75 10.7344 7.75 9.75C7.75 8.79297 8.51562 8 9.5 8C10.457 8 11.25 8.79297 11.25 9.75Z" fill="#828282"/>
</svg>
