<svg width="112" height="31" viewBox="0 0 112 31" fill="none" xmlns="http://www.w3.org/2000/svg">
<g clip-path="url(#clip0_295_5575)">
<path d="M27.7335 15.4098C27.7335 19.2385 26.311 22.7261 23.9899 25.3137C21.4624 28.1317 17.8731 29.89 13.8901 29.89C9.90707 29.89 6.24845 28.0972 3.72089 25.2338C1.7103 22.9602 0.39014 20.0079 0.103904 16.7453C0.0657391 16.3043 0.0449219 15.8616 0.0449219 15.4116C0.0449219 15.3698 0.0449219 15.3263 0.0466566 15.2846C0.0726781 11.8605 1.23671 8.71947 3.16577 6.25348C5.70373 3.00178 9.56532 0.927734 13.8884 0.927734C18.2114 0.927734 22.0019 2.96367 24.5416 6.16093C26.5331 8.66866 27.7335 11.8931 27.7335 15.4098Z" fill="#F4E9D4"/>
<path d="M15.4726 23.0069C18.5865 23.2047 21.3795 23.9468 23.4941 25.0428C23.7457 25.1735 23.7977 25.5273 23.5965 25.7342C21.0967 28.3054 17.6688 29.8895 13.887 29.8895C10.1052 29.8895 6.61313 28.2727 4.10986 25.6598C3.91037 25.4511 3.96588 25.0954 4.22089 24.9684C6.31649 23.9123 9.05048 23.201 12.0933 23.0087C12.6467 22.9742 13.2105 22.9561 13.7812 22.9561C14.3519 22.9561 14.9192 22.9742 15.4726 23.0087V23.0069Z" fill="#EE783C"/>
<path d="M27.5654 15.867C27.5654 19.7683 21.3949 22.9329 13.7827 22.9329C6.17056 22.9329 0 19.7683 0 15.867C0 11.9657 5.88606 8.94992 13.2554 8.80838C12.8616 8.80113 12.4678 8.78479 12.0826 8.75939C8.73975 8.54709 5.7681 7.72146 3.60831 6.51115C3.37586 6.3805 3.32208 6.05569 3.49555 5.84702C6.03005 2.83121 9.74765 0.927734 13.8885 0.927734C18.0294 0.927734 21.6794 2.79492 24.2139 5.76173C24.3891 5.96678 24.3388 6.29158 24.1098 6.42405C21.9396 7.68335 18.9055 8.54164 15.488 8.75939C15.1011 8.78298 14.7074 8.80113 14.3136 8.80838C21.6811 8.95173 27.5689 12.0565 27.5689 15.867H27.5654Z" fill="#EE783C"/>
<path d="M44.9802 16.185C51.5249 16.185 54.7638 13.5159 54.7638 9.02071C54.7638 4.52549 51.5249 1.85645 44.9802 1.85645H34.0947V2.03204C35.4638 2.62906 36.2318 3.2612 36.2318 5.68441V22.4713C36.2318 24.9296 35.397 25.7022 34.0947 26.2641V26.4397H46.3826V26.2641C44.112 25.8427 43.2439 24.754 43.2439 22.4713V16.185H44.9802ZM43.7447 2.8749C45.6814 2.8749 47.2508 5.50882 47.2508 9.02071C47.2508 12.5326 45.6814 15.1665 43.7447 15.1665H43.2439V2.8749H43.7447Z" fill="#191919"/>
<path d="M55.2824 29.1439C60.0573 29.1439 63.2295 26.7558 63.2295 21.4177V5.68441C63.2295 3.96358 63.9975 2.62906 65.3665 2.03204V1.85645H54.0803V2.03204C55.4494 2.62906 56.2174 3.2612 56.2174 5.68441V23.0683C56.2174 26.6504 54.5812 28.3713 52.4442 28.3713H52.177V28.6522C52.945 28.9683 53.8466 29.1439 55.2824 29.1439Z" fill="#191919"/>
<path d="M64.3554 26.4397H79.348L79.8488 17.66H79.6819C78.2795 22.4713 75.2743 25.4915 71.9018 25.4915H71.7348L80.3831 8.14274V8.00226H66.2253L65.2236 16.2201H65.3905C66.5926 11.8653 69.531 8.95047 72.6698 8.95047H73.0037L64.3554 26.2992V26.4397Z" fill="#191919"/>
<path d="M90.6433 21.7338C87.6715 21.7338 85.668 19.6969 85.1672 15.7284H94.7838C94.7838 9.05583 90.7435 7.47548 87.9052 7.47548C83.364 7.47548 80.0583 11.6898 80.0583 17.5897C80.0583 23.7356 83.8315 26.9665 87.6715 26.9665C90.3428 26.9665 93.8154 25.351 94.717 19.9427L94.4499 19.8725C93.5483 21.207 92.3128 21.7338 90.6433 21.7338ZM87.1706 8.6344C88.5063 8.6344 89.2075 10.004 89.2075 14.6397H85.067C85.0336 14.3237 85.0336 14.0076 85.0336 13.6564C85.0336 10.4957 85.8016 8.6344 87.1706 8.6344Z" fill="#191919"/>
<path d="M111.954 23.6302V12.5677C111.954 9.30166 110.151 7.47548 107.112 7.47548C104.875 7.47548 103.172 8.59928 102.437 10.6713V7.47548L94.4569 9.86357V10.0392C95.659 10.4255 96.0931 11.163 96.0931 12.8487V23.6302C96.0931 25.0701 95.3919 25.8427 94.4569 26.2641V26.4397H103.406V26.2641C102.705 25.9129 102.437 25.2457 102.437 23.9814V11.3034C102.805 10.7767 103.306 10.4255 104.074 10.4255C105.042 10.4255 105.61 11.1279 105.61 12.5677V23.9814C105.61 25.2457 105.342 25.9129 104.641 26.2641V26.4397H113.59V26.2641C112.655 25.8427 111.954 25.0701 111.954 23.6302Z" fill="#191919"/>
</g>
<defs>
<clipPath id="clip0_295_5575">
<rect width="112" height="31" fill="white"/>
</clipPath>
</defs>
</svg>
