<svg width="10" height="10" viewBox="0 0 10 10" fill="none" xmlns="http://www.w3.org/2000/svg">
<path d="M9.0027 4.25C9.1902 4.25 9.3777 4.4375 9.3777 4.625L9.3777 5.375C9.3777 5.58594 9.1902 5.75 9.0027 5.75H5.6277L5.6277 9.125C5.6277 9.33594 5.4402 9.5 5.2527 9.5H4.5027C4.29176 9.5 4.1277 9.33594 4.1277 9.125L4.1277 5.75H0.752701C0.541764 5.75 0.377701 5.58594 0.377701 5.375V4.625C0.377701 4.4375 0.541764 4.25 0.752701 4.25H4.1277L4.1277 0.875C4.1277 0.6875 4.29176 0.5 4.5027 0.5L5.2527 0.5C5.4402 0.5 5.6277 0.6875 5.6277 0.875L5.6277 4.25H9.0027Z" fill="white"/>
</svg>
