<svg width="17" height="17" viewBox="0 0 17 17" fill="none" xmlns="http://www.w3.org/2000/svg">
<path d="M16.4287 13.8437C16.71 14.1562 16.71 14.625 16.3975 14.9062L15.5225 15.7812C15.2412 16.0938 14.7725 16.0938 14.46 15.7812L11.3662 12.6875C11.21 12.5312 11.1475 12.3437 11.1475 12.1562V11.625C10.0225 12.5 8.64746 13 7.14746 13C3.55371 13 0.647461 10.0938 0.647461 6.5C0.647461 2.9375 3.55371 0 7.14746 0C10.71 0 13.6475 2.9375 13.6475 6.5C13.6475 8.03125 13.1162 9.40625 12.2725 10.5H12.7725C12.96 10.5 13.1475 10.5937 13.3037 10.7187L16.4287 13.8437ZM7.14746 10.5C9.33496 10.5 11.1475 8.71875 11.1475 6.5C11.1475 4.3125 9.33496 2.5 7.14746 2.5C4.92871 2.5 3.14746 4.3125 3.14746 6.5C3.14746 8.71875 4.92871 10.5 7.14746 10.5Z" fill="#979797"/>
</svg>
