<svg width="17" height="12" viewBox="0 0 17 12" fill="none" xmlns="http://www.w3.org/2000/svg">
<path d="M5.625 12C5.8125 12 6 11.8438 6 11.625V10.375C6 10.1875 5.8125 10 5.625 10H3C2.4375 10 2 9.5625 2 9V3C2 2.46875 2.4375 2 3 2H5.625C5.8125 2 6 1.84375 6 1.625V0.375C6 0.1875 5.8125 0 5.625 0H3C1.34375 0 0 1.34375 0 3V9C0 10.6562 1.34375 12 3 12H5.625ZM9.28125 2.53125L11.7188 4.75H5.75C5.3125 4.75 5 5.09375 5 5.5V6.5C5 6.9375 5.3125 7.25 5.75 7.25H11.7188L9.28125 9.5C8.96875 9.78125 8.96875 10.2812 9.28125 10.5625L9.96875 11.25C10.25 11.5312 10.7188 11.5625 11 11.25L15.75 6.53125C16.0625 6.25 16.0625 5.78125 15.75 5.46875L11.0312 0.78125C10.7188 0.46875 10.25 0.46875 9.96875 0.78125L9.28125 1.46875C8.96875 1.75 8.96875 2.25 9.28125 2.53125Z" fill="#4380E5"/>
</svg>
