<svg width="13" height="15" viewBox="0 0 13 15" fill="none" xmlns="http://www.w3.org/2000/svg">
<path d="M12.4228 2.4375C12.6415 2.4375 12.8603 2.65625 12.8603 2.875V3.3125C12.8603 3.55859 12.6415 3.75 12.4228 3.75H11.9853L11.3837 13.0195C11.3564 13.7305 10.7822 14.25 10.0712 14.25L3.37201 14.25C2.66108 14.25 2.08686 13.7305 2.05951 13.0195L1.48529 3.75H1.04779C0.801701 3.75 0.610294 3.55859 0.610294 3.3125V2.875C0.610294 2.65625 0.801701 2.4375 1.04779 2.4375L3.28998 2.4375L4.21967 0.90625C4.43842 0.523437 4.87592 0.25 5.34076 0.25L8.10248 0.25C8.56733 0.25 9.00483 0.523437 9.22358 0.90625L10.1533 2.4375L12.4228 2.4375ZM5.34076 1.5625L4.82123 2.4375L8.62201 2.4375L8.10248 1.5625L5.34076 1.5625ZM10.0712 12.9375L10.6455 3.75L2.79779 3.75L3.37201 12.9375L10.0712 12.9375Z" fill="#3D3D3D"/>
</svg>
