<svg width="21" height="24" viewBox="0 0 21 24" fill="none" xmlns="http://www.w3.org/2000/svg">
<path d="M12.75 14.25C17.2969 14.25 21 17.9531 21 22.5C21 23.3437 20.2969 24 19.5 24L1.5 24C0.65625 24 0 23.3438 0 22.5C0 17.9531 3.65625 14.25 8.25 14.25H12.75ZM2.25 21.75L18.7031 21.75C18.3281 18.7969 15.7969 16.5 12.75 16.5L8.25 16.5C5.15625 16.5 2.625 18.7969 2.25 21.75ZM10.5 12C7.17188 12 4.5 9.32812 4.5 6C4.5 2.71875 7.17188 0 10.5 0C13.7812 0 16.5 2.71875 16.5 6C16.5 9.32812 13.7813 12 10.5 12ZM10.5 2.25C8.39062 2.25 6.75 3.9375 6.75 6C6.75 8.10937 8.39063 9.75 10.5 9.75C12.5625 9.75 14.25 8.10937 14.25 6C14.25 3.9375 12.5625 2.25 10.5 2.25Z" fill="#BCCEEC"/>
</svg>
