<svg width="20" height="16" viewBox="0 0 20 16" fill="none" xmlns="http://www.w3.org/2000/svg">
<path d="M19.5 6.5C19.75 6.5 20 6.75 20 7V8C20 8.28125 19.75 8.5 19.5 8.5H17.5V10.5C17.5 10.7812 17.25 11 17 11L16 11C15.7188 11 15.5 10.7812 15.5 10.5V8.5H13.5C13.2188 8.5 13 8.28125 13 8V7C13 6.75 13.2188 6.5 13.5 6.5L15.5 6.5L15.5 4.5C15.5 4.25 15.7188 4 16 4H17C17.25 4 17.5 4.25 17.5 4.5V6.5L19.5 6.5ZM7 8C4.78125 8 3 6.21875 3 4C3 1.8125 4.78125 0 7 0C9.1875 0 11 1.8125 11 4C11 6.21875 9.1875 8 7 8ZM9.78125 9C12.0938 9 14 10.9062 14 13.2187V14.5C14 15.3437 13.3125 16 12.5 16L1.5 16C0.65625 16 0 15.3438 0 14.5L0 13.2188C0 10.9062 1.875 9 4.1875 9H4.71875C5.40625 9.34375 6.1875 9.5 7 9.5C7.8125 9.5 8.5625 9.34375 9.25 9H9.78125Z" fill="#C4C4C4"/>
</svg>
