<svg width="21" height="24" viewBox="0 0 21 24" fill="none" xmlns="http://www.w3.org/2000/svg">
<path d="M10.5 12C7.17188 12 4.5 9.32812 4.5 6C4.5 2.71875 7.17188 0 10.5 0C13.7812 0 16.5 2.71875 16.5 6C16.5 9.32812 13.7813 12 10.5 12ZM14.6719 13.5C18.1406 13.5 21 16.3594 21 19.8281V21.75C21 23.0156 19.9688 24 18.75 24L2.25 24C0.984375 24 0 23.0156 0 21.75L0 19.8281C0 16.3594 2.8125 13.5 6.28125 13.5H7.07813C8.10938 14.0156 9.28125 14.25 10.5 14.25C11.7188 14.25 12.8438 14.0156 13.875 13.5H14.6719Z" fill="#295AAA"/>
</svg>
